<svg width="36" height="33" viewBox="0 0 36 33" fill="none" xmlns="http://www.w3.org/2000/svg">
<g clip-path="url(#clip0_4986_1421)">
<path fill-rule="evenodd" clip-rule="evenodd" d="M27.6272 20.2683C29.0236 21.1373 30.2843 21.5489 31.365 21.452C31.5548 25.2128 30.1416 27.4336 27.6412 28.3607C25.2281 27.4938 23.798 25.3685 23.9034 21.3981C25.1754 21.4631 26.4213 21.1919 27.6272 20.2711V20.2683ZM3.49313 0.540039H27.2088C28.1686 0.540039 29.0412 0.930232 29.6719 1.55081L29.7302 1.61376C30.33 2.23226 30.7013 3.07007 30.7013 3.97775V13.844C29.7288 13.57 28.7023 13.422 27.6405 13.422C27.1308 13.422 26.6295 13.4565 26.138 13.5223L28.8218 11.0649V3.97775C28.8218 3.56611 28.6559 3.18284 28.3859 2.89711L28.3437 2.85837C28.0512 2.56987 27.6483 2.38861 27.2088 2.38861H3.49313C3.06773 2.38861 2.68102 2.55119 2.39484 2.81271L2.35406 2.85629C2.06156 3.14409 1.87875 3.5419 1.87875 3.97775V16.2875C3.95859 14.4424 7.28789 11.8633 9.38953 10.1247C9.73266 9.83273 10.2431 9.83895 10.5799 10.1219C10.6481 10.178 10.6988 10.2458 10.7557 10.3122L15.6523 17.6193L17.4023 12.378C17.5423 11.646 18.4212 11.4032 18.9534 11.8895L22.1182 14.8713C21.5712 15.1813 21.0551 15.5362 20.572 15.9305L18.9429 14.3926L17.157 19.8422C17.0445 20.6142 16.0713 20.9069 15.5454 20.3119L9.90141 12.1248L1.87875 18.7442V24.2567C1.87875 24.6898 2.06367 25.0862 2.35617 25.374C2.65078 25.6639 3.05648 25.8459 3.49313 25.8459H16.6795C16.7702 26.481 16.9165 27.0988 17.1141 27.6944H3.49313C2.53828 27.6944 1.66219 27.3056 1.02727 26.6816C0.396562 26.0603 0 25.2011 0 24.2567V3.97775C0 3.03202 0.393047 2.17138 1.02516 1.54873L1.08984 1.49062C1.71914 0.903251 2.5657 0.540039 3.49313 0.540039ZM27.6405 16.089C29.9489 16.089 32.0393 17.0098 33.551 18.4979C35.0641 19.9861 36 22.0429 36 24.3142C36 26.5854 35.0641 28.6429 33.5517 30.1304C32.0393 31.6192 29.9489 32.54 27.6405 32.54C25.3329 32.54 23.2425 31.6192 21.7294 30.1304C20.217 28.6429 19.2811 26.5854 19.2811 24.3142C19.2811 22.0449 20.217 19.9895 21.7294 18.5014C23.246 17.0098 25.3343 16.089 27.6405 16.089ZM32.4098 19.6208C31.1906 18.4204 29.5031 17.6774 27.6405 17.6774C25.7773 17.6774 24.0898 18.4191 22.8691 19.6194C21.6499 20.8197 20.8955 22.4801 20.8955 24.3142C20.8955 26.1468 21.6513 27.8079 22.8705 29.0075C24.0912 30.2086 25.7787 30.9516 27.6405 30.9516C29.5031 30.9516 31.1906 30.2086 32.4105 29.0075C33.6305 27.8079 34.3856 26.1468 34.3856 24.3142C34.3856 22.4815 33.6305 20.8211 32.4098 19.6208ZM18.8367 4.76921C19.613 4.76921 20.3175 5.07984 20.8273 5.58142C21.337 6.083 21.652 6.77552 21.652 7.54C21.652 8.30309 21.337 8.99699 20.8273 9.49857C20.3175 10.0002 19.613 10.3101 18.8367 10.3101C18.0598 10.3101 17.3559 10.0002 16.8462 9.49857C16.3364 8.99699 16.0214 8.30309 16.0214 7.54C16.0214 6.77552 16.3364 6.083 16.8462 5.58142C17.3559 5.07984 18.0598 4.76921 18.8367 4.76921ZM19.6959 6.69458C19.4679 6.47065 19.1589 6.34498 18.8367 6.3452C18.5013 6.3452 18.1969 6.47942 17.9775 6.69458C17.7501 6.919 17.6226 7.2231 17.6231 7.54C17.6231 7.87 17.7588 8.16956 17.9775 8.38541C18.1969 8.60057 18.5013 8.7341 18.8367 8.7341C19.1721 8.7341 19.4766 8.60057 19.6959 8.38541C19.9146 8.16956 20.051 7.87 20.051 7.54C20.051 7.20999 19.9146 6.91043 19.6959 6.69458ZM27.6616 21.1975C28.7367 21.8665 29.707 22.1854 30.5402 22.1107C30.6851 25.0067 29.5987 26.7183 27.6722 27.4309L27.6616 21.1975Z" fill="#F6F7F9"/>
</g>
<defs>
<clipPath id="clip0_4986_1421">
<rect width="36" height="32" fill="white" transform="translate(0 0.540039)"/>
</clipPath>
</defs>
</svg>
