<svg width="36" height="36" viewBox="0 0 36 36" fill="none" xmlns="http://www.w3.org/2000/svg">
<path d="M1 5C1 2.79086 2.79086 1 5 1H31C33.2091 1 35 2.79086 35 5V31C35 33.2091 33.2091 35 31 35H5C2.79086 35 1 33.2091 1 31V5Z" stroke="#F6F7F9" stroke-width="2"/>
<path d="M1 23.9702L7.8365 17.385C8.714 16.5397 10.1369 16.6688 10.848 17.6581L16.7799 25.9112C17.4448 26.8363 18.7471 27.0199 19.6419 26.3147L27.0193 20.5007C27.8041 19.8821 28.9251 19.9378 29.6448 20.6311L35 25.7897" stroke="#F6F7F9" stroke-width="2"/>
<circle cx="25.3912" cy="10.6087" r="3.69565" fill="#F6F7F9"/>
</svg>
